<mxfile host="app.diagrams.net" modified="2022-10-10T08:20:48.636Z" agent="5.0 (Windows NT 10.0; Win64; x64) AppleWebKit/537.36 (KHTML, like Gecko) Chrome/106.0.0.0 Safari/537.36" etag="oaHwZcLiRtwEcERcleyy" version="20.4.0" type="github">
  <diagram id="eraZtiesyyKzCnQzBZrM" name="第 1 页">
    <mxGraphModel dx="1422" dy="882" grid="1" gridSize="10" guides="1" tooltips="1" connect="1" arrows="1" fold="1" page="1" pageScale="1" pageWidth="827" pageHeight="1169" math="0" shadow="0">
      <root>
        <mxCell id="0" />
        <mxCell id="1" parent="0" />
        <mxCell id="HcmrLSx6I8AvW_MXmtDu-1" value="客户端" style="whiteSpace=wrap;html=1;aspect=fixed;" vertex="1" parent="1">
          <mxGeometry x="90" y="340" width="80" height="80" as="geometry" />
        </mxCell>
        <mxCell id="HcmrLSx6I8AvW_MXmtDu-2" value="服务端" style="whiteSpace=wrap;html=1;aspect=fixed;" vertex="1" parent="1">
          <mxGeometry x="580" y="340" width="80" height="80" as="geometry" />
        </mxCell>
        <mxCell id="HcmrLSx6I8AvW_MXmtDu-3" value="flask中转站&lt;br&gt;" style="whiteSpace=wrap;html=1;aspect=fixed;" vertex="1" parent="1">
          <mxGeometry x="350" y="340" width="80" height="80" as="geometry" />
        </mxCell>
        <mxCell id="HcmrLSx6I8AvW_MXmtDu-5" value="" style="endArrow=classic;html=1;rounded=0;exitX=1.038;exitY=0.338;exitDx=0;exitDy=0;exitPerimeter=0;entryX=0;entryY=0.35;entryDx=0;entryDy=0;entryPerimeter=0;" edge="1" parent="1" source="HcmrLSx6I8AvW_MXmtDu-1" target="HcmrLSx6I8AvW_MXmtDu-3">
          <mxGeometry width="50" height="50" relative="1" as="geometry">
            <mxPoint x="390" y="470" as="sourcePoint" />
            <mxPoint x="440" y="420" as="targetPoint" />
          </mxGeometry>
        </mxCell>
        <mxCell id="HcmrLSx6I8AvW_MXmtDu-6" value="request" style="text;html=1;align=center;verticalAlign=middle;resizable=0;points=[];autosize=1;strokeColor=none;fillColor=none;" vertex="1" parent="1">
          <mxGeometry x="220" y="335" width="60" height="30" as="geometry" />
        </mxCell>
        <mxCell id="HcmrLSx6I8AvW_MXmtDu-7" value="" style="endArrow=classic;html=1;rounded=0;entryX=0.013;entryY=0.35;entryDx=0;entryDy=0;entryPerimeter=0;exitX=1.063;exitY=0.35;exitDx=0;exitDy=0;exitPerimeter=0;" edge="1" parent="1" source="HcmrLSx6I8AvW_MXmtDu-3" target="HcmrLSx6I8AvW_MXmtDu-2">
          <mxGeometry width="50" height="50" relative="1" as="geometry">
            <mxPoint x="390" y="470" as="sourcePoint" />
            <mxPoint x="440" y="420" as="targetPoint" />
          </mxGeometry>
        </mxCell>
        <mxCell id="HcmrLSx6I8AvW_MXmtDu-8" value="request" style="text;html=1;align=center;verticalAlign=middle;resizable=0;points=[];autosize=1;strokeColor=none;fillColor=none;" vertex="1" parent="1">
          <mxGeometry x="470" y="335" width="60" height="30" as="geometry" />
        </mxCell>
        <mxCell id="HcmrLSx6I8AvW_MXmtDu-9" value="" style="endArrow=classic;html=1;rounded=0;exitX=-0.025;exitY=0.663;exitDx=0;exitDy=0;exitPerimeter=0;entryX=1.075;entryY=0.675;entryDx=0;entryDy=0;entryPerimeter=0;" edge="1" parent="1" source="HcmrLSx6I8AvW_MXmtDu-2" target="HcmrLSx6I8AvW_MXmtDu-3">
          <mxGeometry width="50" height="50" relative="1" as="geometry">
            <mxPoint x="390" y="470" as="sourcePoint" />
            <mxPoint x="440" y="420" as="targetPoint" />
          </mxGeometry>
        </mxCell>
        <mxCell id="HcmrLSx6I8AvW_MXmtDu-10" value="response" style="text;html=1;align=center;verticalAlign=middle;resizable=0;points=[];autosize=1;strokeColor=none;fillColor=none;" vertex="1" parent="1">
          <mxGeometry x="465" y="395" width="70" height="30" as="geometry" />
        </mxCell>
        <mxCell id="HcmrLSx6I8AvW_MXmtDu-11" value="" style="endArrow=classic;html=1;rounded=0;exitX=0;exitY=0.75;exitDx=0;exitDy=0;entryX=1;entryY=0.75;entryDx=0;entryDy=0;" edge="1" parent="1" source="HcmrLSx6I8AvW_MXmtDu-3" target="HcmrLSx6I8AvW_MXmtDu-1">
          <mxGeometry width="50" height="50" relative="1" as="geometry">
            <mxPoint x="390" y="470" as="sourcePoint" />
            <mxPoint x="440" y="420" as="targetPoint" />
          </mxGeometry>
        </mxCell>
        <mxCell id="HcmrLSx6I8AvW_MXmtDu-12" value="response" style="text;html=1;align=center;verticalAlign=middle;resizable=0;points=[];autosize=1;strokeColor=none;fillColor=none;" vertex="1" parent="1">
          <mxGeometry x="215" y="395" width="70" height="30" as="geometry" />
        </mxCell>
      </root>
    </mxGraphModel>
  </diagram>
</mxfile>
